<svg width="0" height="0" style="position: absolute;">
  <defs>
    <!-- Shopping Cart Icon -->
    <symbol id="cart" viewBox="0 0 24 24" fill="none" stroke="currentColor" stroke-width="2">
      <circle cx="9" cy="21" r="1"></circle>
      <circle cx="20" cy="21" r="1"></circle>
      <path d="m1 1 4 4 16 3-4 8H6L4 4H1"></path>
    </symbol>
    
    <!-- Search Icon -->
    <symbol id="search" viewBox="0 0 24 24" fill="none" stroke="currentColor" stroke-width="2">
      <circle cx="11" cy="11" r="8"></circle>
      <path d="m21 21-4.35-4.35"></path>
    </symbol>
    
    <!-- Heart Icon -->
    <symbol id="heart" viewBox="0 0 24 24" fill="none" stroke="currentColor" stroke-width="2">
      <path d="M20.84 4.61a5.5 5.5 0 0 0-7.78 0L12 5.67l-1.06-1.06a5.5 5.5 0 0 0-7.78 7.78l1.06 1.06L12 21.23l7.78-7.78 1.06-1.06a5.5 5.5 0 0 0 0-7.78z"></path>
    </symbol>
    
    <!-- Star Icon -->
    <symbol id="star" viewBox="0 0 24 24" fill="currentColor" stroke="currentColor" stroke-width="2">
      <polygon points="12,2 15.09,8.26 22,9.27 17,14.14 18.18,21.02 12,17.77 5.82,21.02 7,14.14 2,9.27 8.91,8.26"></polygon>
    </symbol>
    
    <!-- Menu Icon -->
    <symbol id="menu" viewBox="0 0 24 24" fill="none" stroke="currentColor" stroke-width="2">
      <line x1="3" y1="6" x2="21" y2="6"></line>
      <line x1="3" y1="12" x2="21" y2="12"></line>
      <line x1="3" y1="18" x2="21" y2="18"></line>
    </symbol>
    
    <!-- Close Icon -->
    <symbol id="close" viewBox="0 0 24 24" fill="none" stroke="currentColor" stroke-width="2">
      <line x1="18" y1="6" x2="6" y2="18"></line>
      <line x1="6" y1="6" x2="18" y2="18"></line>
    </symbol>
    
    <!-- Phone Icon -->
    <symbol id="phone" viewBox="0 0 24 24" fill="none" stroke="currentColor" stroke-width="2">
      <path d="M22 16.92v3a2 2 0 0 1-2.18 2 19.79 19.79 0 0 1-8.63-3.07 19.5 19.5 0 0 1-6-6 19.79 19.79 0 0 1-3.07-8.67A2 2 0 0 1 4.11 2h3a2 2 0 0 1 2 1.72 12.84 12.84 0 0 0 .7 2.81 2 2 0 0 1-.45 2.11L8.09 9.91a16 16 0 0 0 6 6l1.27-1.27a2 2 0 0 1 2.11-.45 12.84 12.84 0 0 0 2.81.7A2 2 0 0 1 22 16.92z"></path>
    </symbol>
    
    <!-- Mail Icon -->
    <symbol id="mail" viewBox="0 0 24 24" fill="none" stroke="currentColor" stroke-width="2">
      <path d="M4 4h16c1.1 0 2 .9 2 2v12c0 1.1-.9 2-2 2H4c-1.1 0-2-.9-2-2V6c0-1.1.9-2 2-2z"></path>
      <polyline points="22,6 12,13 2,6"></polyline>
    </symbol>
    
    <!-- Location Icon -->
    <symbol id="location" viewBox="0 0 24 24" fill="none" stroke="currentColor" stroke-width="2">
      <path d="M21 10c0 7-9 13-9 13s-9-6-9-13a9 9 0 0 1 18 0z"></path>
      <circle cx="12" cy="10" r="3"></circle>
    </symbol>
    
    <!-- Gem Icon -->
    <symbol id="gem" viewBox="0 0 24 24" fill="none" stroke="currentColor" stroke-width="2">
      <polygon points="6,3 18,3 22,9 12,22 2,9"></polygon>
      <polygon points="6,3 14,3 18,9 12,13"></polygon>
      <polygon points="18,3 22,9 12,13"></polygon>
    </symbol>
    
    <!-- Truck Icon -->
    <symbol id="truck" viewBox="0 0 24 24" fill="none" stroke="currentColor" stroke-width="2">
      <rect x="1" y="3" width="15" height="13"></rect>
      <polygon points="16,8 20,8 23,11 23,16 16,16"></polygon>
      <circle cx="5.5" cy="18.5" r="2.5"></circle>
      <circle cx="18.5" cy="18.5" r="2.5"></circle>
    </symbol>
    
    <!-- Shield Icon -->
    <symbol id="shield" viewBox="0 0 24 24" fill="none" stroke="currentColor" stroke-width="2">
      <path d="M12 22s8-4 8-10V5l-8-3-8 3v7c0 6 8 10 8 10z"></path>
    </symbol>
    
    <!-- Arrow Right Icon -->
    <symbol id="arrow-right" viewBox="0 0 24 24" fill="none" stroke="currentColor" stroke-width="2">
      <line x1="5" y1="12" x2="19" y2="12"></line>
      <polyline points="12,5 19,12 12,19"></polyline>
    </symbol>
    
    <!-- Arrow Up Icon -->
    <symbol id="arrow-up" viewBox="0 0 24 24" fill="none" stroke="currentColor" stroke-width="2">
      <line x1="12" y1="19" x2="12" y2="5"></line>
      <polyline points="5,12 12,5 19,12"></polyline>
    </symbol>
    
    <!-- Eye Icon -->
    <symbol id="eye" viewBox="0 0 24 24" fill="none" stroke="currentColor" stroke-width="2">
      <path d="M1 12s4-8 11-8 11 8 11 8-4 8-11 8-11-8-11-8z"></path>
      <circle cx="12" cy="12" r="3"></circle>
    </symbol>
    
    <!-- Facebook Icon -->
    <symbol id="facebook" viewBox="0 0 24 24" fill="currentColor">
      <path d="M24 12.073c0-6.627-5.373-12-12-12s-12 5.373-12 12c0 5.99 4.388 10.954 10.125 11.854v-8.385H7.078v-3.47h3.047V9.43c0-3.007 1.792-4.669 4.533-4.669 1.312 0 2.686.235 2.686.235v2.953H15.83c-1.491 0-1.956.925-1.956 1.874v2.25h3.328l-.532 3.47h-2.796v8.385C19.612 23.027 24 18.062 24 12.073z"/>
    </symbol>
    
    <!-- Telegram Icon -->
    <symbol id="telegram" viewBox="0 0 24 24" fill="currentColor">
      <path d="M11.944 0A12 12 0 0 0 0 12a12 12 0 0 0 12 12 12 12 0 0 0 12-12A12 12 0 0 0 12 0a12 12 0 0 0-.056 0zm4.962 7.224c.1-.002.321.023.465.14a.506.506 0 0 1 .171.325c.016.093.036.306.02.472-.18 1.898-.962 6.502-1.36 8.627-.168.9-.499 1.201-.82 1.23-.696.065-1.225-.46-1.9-.902-1.056-.693-1.653-1.124-2.678-1.8-1.185-.78-.417-1.21.258-1.91.177-.184 3.247-2.977 3.307-3.23.007-.032.014-.15-.056-.212s-.174-.041-.249-.024c-.106.024-1.793 1.14-5.061 3.345-.48.33-.913.49-1.302.48-.428-.008-1.252-.241-1.865-.44-.752-.245-1.349-.374-1.297-.789.027-.216.325-.437.893-.663 3.498-1.524 5.83-2.529 6.998-3.014 3.332-1.386 4.025-1.627 4.476-1.635z"/>
    </symbol>
    
    <!-- Box Icon -->
    <symbol id="box" viewBox="0 0 24 24" fill="none" stroke="currentColor" stroke-width="2">
      <line x1="8.5" y1="8.5" x2="15.5" y2="15.5"></line>
      <line x1="15.5" y1="8.5" x2="8.5" y2="15.5"></line>
      <rect x="1" y="3" width="18" height="18" rx="2" ry="2"></rect>
    </symbol>
    
    <!-- Tag Icon -->
    <symbol id="tag" viewBox="0 0 24 24" fill="none" stroke="currentColor" stroke-width="2">
      <path d="M20.59 13.41l-7.17 7.17a2 2 0 0 1-2.83 0L2 12V2h10l8.59 8.59a2 2 0 0 1 0 2.82z"></path>
      <line x1="7" y1="7" x2="7.01" y2="7"></line>
    </symbol>
    
    <!-- History Icon -->
    <symbol id="history" viewBox="0 0 24 24" fill="none" stroke="currentColor" stroke-width="2">
      <polyline points="23,4 23,10 17,10"></polyline>
      <polyline points="1,20 1,14 7,14"></polyline>
      <path d="M20.49 9A9 9 0 0 0 5.64 5.64L1 10"></path>
      <path d="M3.51 15A9 9 0 0 0 18.36 18.36L23 14"></path>
    </symbol>
    
    <!-- Check Circle Icon -->
    <symbol id="check-circle" viewBox="0 0 24 24" fill="none" stroke="currentColor" stroke-width="2">
      <path d="M22 11.08V12a10 10 0 1 1-5.93-9.14"></path>
      <polyline points="22,4 12,14.01 9,11.01"></polyline>
    </symbol>
    
    <!-- Info Circle Icon -->
    <symbol id="info-circle" viewBox="0 0 24 24" fill="none" stroke="currentColor" stroke-width="2">
      <circle cx="12" cy="12" r="10"></circle>
      <line x1="12" y1="16" x2="12" y2="12"></line>
      <line x1="12" y1="8" x2="12.01" y2="8"></line>
    </symbol>
    
    <!-- Paper Plane Icon -->
    <symbol id="paper-plane" viewBox="0 0 24 24" fill="none" stroke="currentColor" stroke-width="2">
      <path d="M22 2L11 13"></path>
      <polygon points="22,2 15,22 11,13 2,9"></polygon>
    </symbol>
    
    <!-- Chevron Up Icon -->
    <symbol id="chevron-up" viewBox="0 0 24 24" fill="none" stroke="currentColor" stroke-width="2">
      <polyline points="18,15 12,9 6,15"></polyline>
    </symbol>
    
    <!-- Chevron Left Icon -->
    <symbol id="chevron-left" viewBox="0 0 24 24" fill="none" stroke="currentColor" stroke-width="2">
      <polyline points="15,18 9,12 15,6"></polyline>
    </symbol>
    
    <!-- Chevron Right Icon -->
    <symbol id="chevron-right" viewBox="0 0 24 24" fill="none" stroke="currentColor" stroke-width="2">
      <polyline points="9,18 15,12 9,6"></polyline>
    </symbol>
    
    <!-- Times Icon -->
    <symbol id="times" viewBox="0 0 24 24" fill="none" stroke="currentColor" stroke-width="2">
      <line x1="18" y1="6" x2="6" y2="18"></line>
      <line x1="6" y1="6" x2="18" y2="18"></line>
    </symbol>
  </defs>
</svg>
